<svg xmlns="http://www.w3.org/2000/svg" viewBox="0 0 1920 1039" preserveAspectRatio="xMidYMid" width="1920" height="1039" style="shape-rendering: auto; display: block; background: rgb(255, 255, 255);" xmlns:xlink="http://www.w3.org/1999/xlink"><g><path stroke="none" fill="none" d="M 1884.0445110117216 522.7786664401618
c 0 23.214636680249033 -5.680177060060933 6.66803394007153 -12.348211000132462 6.66803394007153
S 1859.3480890114565 545.9933031204108 1859.3480890114565 522.7786664401618
s 5.680177060060933 -6.66803394007153 12.348211000132462 -6.66803394007153
S 1884.0445110117216 499.5640297599128 1884.0445110117216 522.7786664401618
z" id="path0"></path>
<circle fill="#de9dd6" r="6.0959508687168675" cy="0" cx="0">
  <animateMotion repeatCount="indefinite" dur="5s" begin="-2.067736336271207s">
    <mpath xlink:href="#path0"></mpath>
  </animateMotion>
</circle><path stroke="none" fill="none" d="M 1248.2136762008975 183.62219252555906
c 0 34.776064436148374 -8.509037042887368 9.988869572085171 -18.49790661497254 9.988869572085171
S 1211.2178629709522 218.39825696170743 1211.2178629709522 183.62219252555906
s 8.509037042887368 -9.988869572085171 18.49790661497254 -9.988869572085171
S 1248.2136762008975 148.84612808941068 1248.2136762008975 183.62219252555906
z" id="path1"></path>
<circle fill="#51cacc" r="7.398760401441599" cy="0" cx="0">
  <animateMotion repeatCount="indefinite" dur="5s" begin="-3.6878228121412753s">
    <mpath xlink:href="#path1"></mpath>
  </animateMotion>
</circle><path stroke="none" fill="none" d="M 1795.840173042759 461.5736461890359
c 0 35.63760047746058 -8.7198384146978 10.23633205203655 -18.95617046673435 10.23633205203655
S 1757.9278321092902 497.2112466664965 1757.9278321092902 461.5736461890359
s 8.7198384146978 -10.23633205203655 18.95617046673435 -10.23633205203655
S 1795.840173042759 425.93604571157533 1795.840173042759 461.5736461890359
z" id="path2"></path>
<circle fill="#51cacc" r="5.896746163574711" cy="0" cx="0">
  <animateMotion repeatCount="indefinite" dur="5s" begin="-4.02264652934719s">
    <mpath xlink:href="#path2"></mpath>
  </animateMotion>
</circle><path stroke="none" fill="none" d="M 813.328973824816 19.063963675053433
c 0 34.32651860337691 -8.399041785932647 9.859744705225284 -18.25878649115793 9.859744705225284
S 776.8114008425001 53.39048227843034 776.8114008425001 19.063963675053433
s 8.399041785932647 -9.859744705225284 18.25878649115793 -9.859744705225284
S 813.328973824816 -15.262554928323478 813.328973824816 19.063963675053433
z" id="path3"></path>
<circle fill="#e0ff77" r="6.630188323270565" cy="0" cx="0">
  <animateMotion repeatCount="indefinite" dur="5s" begin="-2.443774481522179s">
    <mpath xlink:href="#path3"></mpath>
  </animateMotion>
</circle><path stroke="none" fill="none" d="M 751.0049414032492 204.49965172298135
c 0 33.41975248357708 -8.177173480024178 9.599290606984907 -17.776464087009085 9.599290606984907
S 715.4520132292309 237.91940420655843 715.4520132292309 204.49965172298135
s 8.177173480024178 -9.599290606984907 17.776464087009085 -9.599290606984907
S 751.0049414032492 171.07989923940428 751.0049414032492 204.49965172298135
z" id="path4"></path>
<circle fill="#ff708e" r="5.905305580400504" cy="0" cx="0">
  <animateMotion repeatCount="indefinite" dur="5s" begin="-0.45475137532728904s">
    <mpath xlink:href="#path4"></mpath>
  </animateMotion>
</circle><path stroke="none" fill="none" d="M 1819.886231290317 214.53252314196558
c 0 20.480364438320883 -5.011153000865748 5.8826578705815304 -10.893810871447279 5.8826578705815304
S 1798.0986095474223 235.01288758028647 1798.0986095474223 214.53252314196558
s 5.011153000865748 -5.8826578705815304 10.893810871447279 -5.8826578705815304
S 1819.886231290317 194.0521587036447 1819.886231290317 214.53252314196558
z" id="path5"></path>
<circle fill="#de9dd6" r="7.739710169927564" cy="0" cx="0">
  <animateMotion repeatCount="indefinite" dur="5s" begin="-3.05202830425595s">
    <mpath xlink:href="#path5"></mpath>
  </animateMotion>
</circle><path stroke="none" fill="none" d="M 1610.2673452689069 226.56324447108372
c 0 24.027947789998795 -5.879178714574173 6.901644577978377 -12.780823292552551 6.901644577978377
S 1584.705698683802 250.5911922610825 1584.705698683802 226.56324447108372
s 5.879178714574173 -6.901644577978377 12.780823292552551 -6.901644577978377
S 1610.2673452689069 202.53529668108493 1610.2673452689069 226.56324447108372
z" id="path6"></path>
<circle fill="#e0ff77" r="5.95437144829155" cy="0" cx="0">
  <animateMotion repeatCount="indefinite" dur="5s" begin="-4.083963111995884s">
    <mpath xlink:href="#path6"></mpath>
  </animateMotion>
</circle><path stroke="none" fill="none" d="M 869.8143797617719 964.5687046829237
c 0 35.17027527759598 -8.605492887071355 10.102100345692461 -18.707593232763816 10.102100345692461
S 832.3991932962443 999.7389799605196 832.3991932962443 964.5687046829237
s 8.605492887071355 -10.102100345692461 18.707593232763816 -10.102100345692461
S 869.8143797617719 929.3984294053278 869.8143797617719 964.5687046829237
z" id="path7"></path>
<circle fill="#de9dd6" r="6.801668551015361" cy="0" cx="0">
  <animateMotion repeatCount="indefinite" dur="5s" begin="-1.7060209772029604s">
    <mpath xlink:href="#path7"></mpath>
  </animateMotion>
</circle><path stroke="none" fill="none" d="M 520.3865137639688 200.11050901056325
c 0 31.2763065030994 -7.652713293311554 8.983619953017913 -16.636333246329468 8.983619953017913
S 487.11384727130985 231.38681551366264 487.11384727130985 200.11050901056325
s 7.652713293311554 -8.983619953017913 16.636333246329468 -8.983619953017913
S 520.3865137639688 168.83420250746386 520.3865137639688 200.11050901056325
z" id="path8"></path>
<circle fill="#e0ff77" r="4.7387851159513055" cy="0" cx="0">
  <animateMotion repeatCount="indefinite" dur="5s" begin="-3.107850858184773s">
    <mpath xlink:href="#path8"></mpath>
  </animateMotion>
</circle><path stroke="none" fill="none" d="M 457.07945339031824 989.4212526736944
c 0 37.23910519952971 -9.111695953076419 10.696338727524491 -19.80803468060091 10.696338727524491
S 417.46338402911636 1026.660357873224 417.46338402911636 989.4212526736944
s 9.111695953076419 -10.696338727524491 19.80803468060091 -10.696338727524491
S 457.07945339031824 952.1821474741647 457.07945339031824 989.4212526736944
z" id="path9"></path>
<circle fill="#51cacc" r="6.1086136547973755" cy="0" cx="0">
  <animateMotion repeatCount="indefinite" dur="5s" begin="-1.5437684520607728s">
    <mpath xlink:href="#path9"></mpath>
  </animateMotion>
</circle><path stroke="none" fill="none" d="M 1480.3836554635088 773.7412607734715
c 0 27.428086429658237 -6.711127530661058 7.878280144689068 -14.589407675350126 7.878280144689068
S 1451.2048401128084 801.1693472031297 1451.2048401128084 773.7412607734715
s 6.711127530661058 -7.878280144689068 14.589407675350126 -7.878280144689068
S 1480.3836554635088 746.3131743438132 1480.3836554635088 773.7412607734715
z" id="path10"></path>
<circle fill="#e0ff77" r="4.6238951082209425" cy="0" cx="0">
  <animateMotion repeatCount="indefinite" dur="5s" begin="-4.570583190997013s">
    <mpath xlink:href="#path10"></mpath>
  </animateMotion>
</circle><path stroke="none" fill="none" d="M 1560.51040171323 355.581424162834
c 0 31.42230944010833 -7.6884374161967175 9.025556966839627 -16.713994383036344 9.025556966839627
S 1527.0824129471573 387.00373360294236 1527.0824129471573 355.581424162834
s 7.6884374161967175 -9.025556966839627 16.713994383036344 -9.025556966839627
S 1560.51040171323 324.1591147227257 1560.51040171323 355.581424162834
z" id="path11"></path>
<circle fill="#e0ff77" r="5.2980798529984625" cy="0" cx="0">
  <animateMotion repeatCount="indefinite" dur="5s" begin="-3.2138374938947347s">
    <mpath xlink:href="#path11"></mpath>
  </animateMotion>
</circle><path stroke="none" fill="none" d="M 984.6131858953713 667.1074145317799
c 0 23.630492231658337 -5.78192895029938 6.787481811221012 -12.569410761520391 6.787481811221012
S 959.4743643723305 690.7379067634382 959.4743643723305 667.1074145317799
s 5.78192895029938 -6.787481811221012 12.569410761520391 -6.787481811221012
S 984.6131858953713 643.4769223001216 984.6131858953713 667.1074145317799
z" id="path12"></path>
<circle fill="#51cacc" r="6.479461532522315" cy="0" cx="0">
  <animateMotion repeatCount="indefinite" dur="5s" begin="-0.7406658319594s">
    <mpath xlink:href="#path12"></mpath>
  </animateMotion>
</circle><path stroke="none" fill="none" d="M 53.81448103731583 749.4728916121804
c 0 23.03963369171877 -5.637357179888635 6.617767124217094 -12.25512430410573 6.617767124217094
S 29.304232429104374 772.5125253038992 29.304232429104374 749.4728916121804
s 5.637357179888635 -6.617767124217094 12.25512430410573 -6.617767124217094
S 53.81448103731583 726.4332579204616 53.81448103731583 749.4728916121804
z" id="path13"></path>
<circle fill="#9df871" r="7.512306931461373" cy="0" cx="0">
  <animateMotion repeatCount="indefinite" dur="5s" begin="-0.0739061393494954s">
    <mpath xlink:href="#path13"></mpath>
  </animateMotion>
</circle><path stroke="none" fill="none" d="M 1255.0522057964788 561.0666458289057
c 0 26.779418917232682 -6.552411011663315 7.691960752822154 -14.244371764485468 7.691960752822154
S 1226.5634622675077 587.8460647461384 1226.5634622675077 561.0666458289057
s 6.552411011663315 -7.691960752822154 14.244371764485468 -7.691960752822154
S 1255.0522057964788 534.2872269116731 1255.0522057964788 561.0666458289057
z" id="path14"></path>
<circle fill="#de9dd6" r="4.842233416448245" cy="0" cx="0">
  <animateMotion repeatCount="indefinite" dur="5s" begin="-1.0508378997619732s">
    <mpath xlink:href="#path14"></mpath>
  </animateMotion>
</circle><path stroke="none" fill="none" d="M 167.44862597967105 769.3380796509889
c 0 29.706900684870387 -7.268709742042754 8.532833175441494 -15.801542917484248 8.532833175441494
S 135.84554014470254 799.0449803358592 135.84554014470254 769.3380796509889
s 7.268709742042754 -8.532833175441494 15.801542917484248 -8.532833175441494
S 167.44862597967105 739.6311789661186 167.44862597967105 769.3380796509889
z" id="path15"></path>
<circle fill="#51cacc" r="7.10933734543576" cy="0" cx="0">
  <animateMotion repeatCount="indefinite" dur="5s" begin="-2.592780616935035s">
    <mpath xlink:href="#path15"></mpath>
  </animateMotion>
</circle><path stroke="none" fill="none" d="M 513.1541588603664 279.0639780224865
c 0 23.331976699318304 -5.708887915790648 6.701737988102066 -12.410625903892713 6.701737988102066
S 488.33290705258094 302.3959547218048 488.33290705258094 279.0639780224865
s 5.708887915790648 -6.701737988102066 12.410625903892713 -6.701737988102066
S 513.1541588603664 255.73200132316816 513.1541588603664 279.0639780224865
z" id="path16"></path>
<circle fill="#de9dd6" r="5.1859048530592515" cy="0" cx="0">
  <animateMotion repeatCount="indefinite" dur="5s" begin="-2.422136136366506s">
    <mpath xlink:href="#path16"></mpath>
  </animateMotion>
</circle><path stroke="none" fill="none" d="M 1181.9020395968907 80.41018070080818
c 0 20.438534063244838 -5.000917909091821 5.870642762846922 -10.871560671938742 5.870642762846922
S 1160.158918253013 100.84871476405303 1160.158918253013 80.41018070080818
s 5.000917909091821 -5.870642762846922 10.871560671938742 -5.870642762846922
S 1181.9020395968907 59.971646637563346 1181.9020395968907 80.41018070080818
z" id="path17"></path>
<circle fill="#9df871" r="4.76684013497518" cy="0" cx="0">
  <animateMotion repeatCount="indefinite" dur="5s" begin="-2.288231715946307s">
    <mpath xlink:href="#path17"></mpath>
  </animateMotion>
</circle><path stroke="none" fill="none" d="M 1011.9752973195139 550.6875324673126
c 0 26.452044506436465 -6.472308762213177 7.597927677380687 -14.070236439593863 7.597927677380687
S 983.8348244403262 577.1395769737491 983.8348244403262 550.6875324673126
s 6.472308762213177 -7.597927677380687 14.070236439593863 -7.597927677380687
S 1011.9752973195139 524.2354879608762 1011.9752973195139 550.6875324673126
z" id="path18"></path>
<circle fill="#e0ff77" r="5.157859438174087" cy="0" cx="0">
  <animateMotion repeatCount="indefinite" dur="5s" begin="-1.3959502998658526s">
    <mpath xlink:href="#path18"></mpath>
  </animateMotion>
</circle><path stroke="none" fill="none" d="M 244.18341497484792 185.484885666135
c 0 20.37512939757114 -4.985404001533364 5.852430784408732 -10.837834785942096 5.852430784408732
S 222.5077454029637 205.86001506370613 222.5077454029637 185.484885666135
s 4.985404001533364 -5.852430784408732 10.837834785942096 -5.852430784408732
S 244.18341497484792 165.10975626856387 244.18341497484792 185.484885666135
z" id="path19"></path>
<circle fill="#ff708e" r="6.914274418488932" cy="0" cx="0">
  <animateMotion repeatCount="indefinite" dur="5s" begin="-0.8226474341149685s">
    <mpath xlink:href="#path19"></mpath>
  </animateMotion>
</circle><path stroke="none" fill="none" d="M 1004.8270280415961 768.5265822348043
c 0 25.062186369790833 -6.132237090480735 7.198713106216516 -13.330950196697252 7.198713106216516
S 978.1651276482016 793.5887686045952 978.1651276482016 768.5265822348043
s 6.132237090480735 -7.198713106216516 13.330950196697252 -7.198713106216516
S 1004.8270280415961 743.4643958650134 1004.8270280415961 768.5265822348043
z" id="path20"></path>
<circle fill="#51cacc" r="7.9713895948315034" cy="0" cx="0">
  <animateMotion repeatCount="indefinite" dur="5s" begin="-1.3291810407239968s">
    <mpath xlink:href="#path20"></mpath>
  </animateMotion>
</circle><path stroke="none" fill="none" d="M 1612.428152586231 607.1829035390766
c 0 22.604582683601457 -5.530908528966314 6.492805664438717 -12.02371419340503 6.492805664438717
S 1588.3807241994207 629.7874862226781 1588.3807241994207 607.1829035390766
s 5.530908528966314 -6.492805664438717 12.02371419340503 -6.492805664438717
S 1612.428152586231 584.5783208554751 1612.428152586231 607.1829035390766
z" id="path21"></path>
<circle fill="#ff708e" r="5.834538574183873" cy="0" cx="0">
  <animateMotion repeatCount="indefinite" dur="5s" begin="-4.847599257151823s">
    <mpath xlink:href="#path21"></mpath>
  </animateMotion>
</circle><path stroke="none" fill="none" d="M 1824.9288309947094 335.82903278890353
c 0 18.87833791863089 -4.619167788601175 5.4225013170535545 -10.04166910565473 5.4225013170535545
S 1804.8454927833998 354.70737070753444 1804.8454927833998 335.82903278890353
s 4.619167788601175 -5.4225013170535545 10.04166910565473 -5.4225013170535545
S 1824.9288309947094 316.9506948702726 1824.9288309947094 335.82903278890353
z" id="path22"></path>
<circle fill="#e0ff77" r="5.708736833882941" cy="0" cx="0">
  <animateMotion repeatCount="indefinite" dur="5s" begin="-2.366237838113005s">
    <mpath xlink:href="#path22"></mpath>
  </animateMotion>
</circle><path stroke="none" fill="none" d="M 852.2169534333616 10.021114769299015
c 0 27.116841113702705 -6.634971761863427 7.788879894361415 -14.423851656224842 7.788879894361415
S 823.3692501209118 37.13795588300172 823.3692501209118 10.021114769299015
s 6.634971761863427 -7.788879894361415 14.423851656224842 -7.788879894361415
S 852.2169534333616 -17.09572634440369 852.2169534333616 10.021114769299015
z" id="path23"></path>
<circle fill="#e0ff77" r="5.393288409636318" cy="0" cx="0">
  <animateMotion repeatCount="indefinite" dur="5s" begin="-2.392523190997225s">
    <mpath xlink:href="#path23"></mpath>
  </animateMotion>
</circle><path stroke="none" fill="none" d="M 1604.7612034836975 7.125281778629745
c 0 22.241881425462342 -5.442162476442912 6.388625515824289 -11.830787992267203 6.388625515824289
S 1581.099627499163 29.367163204092087 1581.099627499163 7.125281778629745
s 5.442162476442912 -6.388625515824289 11.830787992267203 -6.388625515824289
S 1604.7612034836975 -15.116599646832597 1604.7612034836975 7.125281778629745
z" id="path24"></path>
<circle fill="#e0ff77" r="5.656041084040716" cy="0" cx="0">
  <animateMotion repeatCount="indefinite" dur="5s" begin="-0.23189307871817189s">
    <mpath xlink:href="#path24"></mpath>
  </animateMotion>
</circle><path stroke="none" fill="none" d="M 1523.4912461477768 788.6932247354782
c 0 36.45633640607885 -8.920167418508653 10.471500882597116 -19.391668301105767 10.471500882597116
S 1484.7079095455654 825.1495611415571 1484.7079095455654 788.6932247354782
s 8.920167418508653 -10.471500882597116 19.391668301105767 -10.471500882597116
S 1523.4912461477768 752.2368883293993 1523.4912461477768 788.6932247354782
z" id="path25"></path>
<circle fill="#ff708e" r="4.273339793742791" cy="0" cx="0">
  <animateMotion repeatCount="indefinite" dur="5s" begin="-1.7136906498267952s">
    <mpath xlink:href="#path25"></mpath>
  </animateMotion>
</circle><path stroke="none" fill="none" d="M 507.52448969206637 990.02207209272
c 0 30.118291433154795 -7.369369180452768 8.650998603140208 -16.020367783592974 8.650998603140208
S 475.4837541248804 1020.1403635258748 475.4837541248804 990.02207209272
s 7.369369180452768 -8.650998603140208 16.020367783592974 -8.650998603140208
S 507.52448969206637 959.9037806595652 507.52448969206637 990.02207209272
z" id="path26"></path>
<circle fill="#51cacc" r="5.616820946161337" cy="0" cx="0">
  <animateMotion repeatCount="indefinite" dur="5s" begin="-0.9864563279210531s">
    <mpath xlink:href="#path26"></mpath>
  </animateMotion>
</circle><path stroke="none" fill="none" d="M 1571.7537708071416 580.4218940343937
c 0 33.25202752726997 -8.13613439497031 9.551114289747758 -17.687248684718067 9.551114289747758
S 1536.3792734377055 613.6739215616637 1536.3792734377055 580.4218940343937
s 8.13613439497031 -9.551114289747758 17.687248684718067 -9.551114289747758
S 1571.7537708071416 547.1698665071237 1571.7537708071416 580.4218940343937
z" id="path27"></path>
<circle fill="#e0ff77" r="7.051605334431251" cy="0" cx="0">
  <animateMotion repeatCount="indefinite" dur="5s" begin="-4.711764406171545s">
    <mpath xlink:href="#path27"></mpath>
  </animateMotion>
</circle><path stroke="none" fill="none" d="M 1787.8531275541866 232.68226556994674
c 0 36.990438855628106 -9.050852060419642 10.624913288318712 -19.675765348738356 10.624913288318712
S 1748.5015968567097 269.67270442557486 1748.5015968567097 232.68226556994674
s 9.050852060419642 -10.624913288318712 19.675765348738356 -10.624913288318712
S 1787.8531275541866 195.69182671431864 1787.8531275541866 232.68226556994674
z" id="path28"></path>
<circle fill="#de9dd6" r="7.697361878879038" cy="0" cx="0">
  <animateMotion repeatCount="indefinite" dur="5s" begin="-3.7717601506246763s">
    <mpath xlink:href="#path28"></mpath>
  </animateMotion>
</circle><path stroke="none" fill="none" d="M 521.9716655216124 305.2655493030038
c 0 24.875848650499936 -6.086643818739345 7.145190569824449 -13.231834388563794 7.145190569824449
S 495.5079967444848 330.14139795350377 495.5079967444848 305.2655493030038
s 6.086643818739345 -7.145190569824449 13.231834388563794 -7.145190569824449
S 521.9716655216124 280.38970065250385 521.9716655216124 305.2655493030038
z" id="path29"></path>
<circle fill="#9df871" r="7.030784429151285" cy="0" cx="0">
  <animateMotion repeatCount="indefinite" dur="5s" begin="-2.5467331749452664s">
    <mpath xlink:href="#path29"></mpath>
  </animateMotion>
</circle><g></g></g><!-- [ldio] generated by https://loading.io --></svg>